<svg xmlns="http://www.w3.org/2000/svg" width="1780.226" height="480" viewBox="0 0 1780.226 480"><g id="Layer_1" fill="#011627"><path d="M242.171 116.666l242.482 139.618v-116.51L242.016 0 0 139.929v116.665z"/><path d="M445.867 396.691l38.786-22.811v-71.521L242.016 162.43 0 302.359v71.832l38.785 22.5 203.231-117.596z"/><path d="M242.171 444.472L303.754 480l101.157-58.184-162.895-94.01-162.275 94.01L180.885 480zm547.968-97.9q-9.409-14.476-21.713-30.398-12.303-15.923-25.874-30.759-13.57-14.837-28.045-28.226-14.475-13.39-28.588-23.16v112.543h-45.596V95.794h45.596V199.29q11.942-11.942 24.969-25.513 13.028-13.571 25.874-27.502 12.847-13.933 24.427-26.961 11.58-13.027 20.989-23.52h54.643q-11.942 13.751-25.332 28.588-13.389 14.835-27.502 29.854-14.113 15.017-28.407 29.854-14.294 14.838-28.045 28.226 15.198 11.58 30.94 26.961 15.741 15.379 30.94 32.93 15.199 17.551 29.131 36.548 13.932 18.999 25.512 37.817h-53.919zM1076.2 251.76q0 22.437-6.514 40.892-6.513 18.456-18.455 31.483-11.942 13.029-28.769 20.266-16.827 7.237-37.092 7.237-20.265 0-36.911-7.237t-28.588-20.266q-11.942-13.027-18.637-31.483-6.694-18.455-6.694-40.892 0-22.436 6.694-40.711 6.695-18.274 18.818-31.302 12.122-13.026 28.769-20.084 16.646-7.056 36.549-7.056t36.73 7.056q16.827 7.058 28.769 20.084 11.942 13.028 18.637 31.302 6.694 18.275 6.694 40.711zm-44.872 0q0-28.225-12.123-44.69-12.123-16.466-33.835-16.466-21.713 0-33.835 16.466-12.123 16.465-12.123 44.69 0 28.589 12.123 45.236 12.122 16.646 33.835 16.646 21.712 0 33.835-16.646 12.123-16.647 12.123-45.236zm275.929-94.449q-29.312 107.84-68.033 195.413-7.237 16.284-14.836 27.863-7.6 11.581-17.008 19.18-9.409 7.599-20.989 11.038-11.58 3.437-26.779 3.437-10.132 0-20.084-2.172-9.951-2.17-15.018-4.704l7.962-35.102q13.027 5.068 25.693 5.068 17.008 0 26.597-8.143 9.59-8.142 16.828-25.15-20.627-39.806-39.626-86.85-18.998-47.044-33.835-99.878h46.682q3.619 15.199 8.866 32.931 5.247 17.733 11.399 36.007 6.152 18.274 13.027 36.368 6.876 18.094 13.752 33.655 11.58-32.207 21.712-68.575 10.132-36.37 18.456-70.386h45.234zm54.1 95.535q0-24.968 7.418-43.787 7.419-18.817 19.723-31.301 12.303-12.485 28.226-18.817 15.922-6.334 32.568-6.334 39.083 0 60.976 24.245 21.893 24.246 21.893 72.375 0 3.619-.18 8.143-.181 4.523-.543 8.143h-124.847q1.81 22.797 16.104 35.281 14.294 12.486 41.434 12.486 15.923 0 29.131-2.896 13.208-2.894 20.808-6.151l5.79 35.826q-3.619 1.808-9.952 3.799-6.333 1.991-14.475 3.619-8.142 1.627-17.551 2.713-9.408 1.086-19.179 1.086-24.969 0-43.425-7.418-18.455-7.418-30.397-20.628-11.942-13.208-17.732-31.121-5.79-17.912-5.79-39.263zm127.018-19.541q0-9.047-2.533-17.188-2.534-8.142-7.419-14.114-4.885-5.97-11.942-9.409-7.056-3.438-16.827-3.438-10.132 0-17.732 3.8-7.599 3.799-12.846 9.952-5.247 6.151-8.142 14.112-2.895 7.962-3.981 16.285h81.422zm246.979 18.093q0-27.863-11.038-44.147-11.037-16.286-34.92-16.286-10.856 0-20.446 3.258-9.59 3.256-15.38 7.237v108.924q4.704 1.086 12.123 1.991 7.418.905 17.913.905 24.245 0 37.997-16.465 13.751-16.466 13.751-45.417zm44.872.724q0 22.799-6.695 41.073-6.694 18.275-19.179 31.302-12.485 13.028-30.216 19.904-17.732 6.875-40.168 6.875-21.713 0-41.435-3.256-19.722-3.257-32.75-7.239V72.995l43.787-7.238v98.069q7.6-3.982 18.637-7.239 11.037-3.256 24.426-3.256 19.903 0 35.645 7.056 15.741 7.058 26.236 20.084 10.494 13.028 16.103 31.302 5.609 18.275 5.609 40.349z"/></g></svg>